# xmcd
# 
# Track frame offsets:
#     150
#     26820
#     52968
#     71394
#     93361
#     120212
#     143342
#     170858
#     199090
#     230429
#     250622
#     268282
#     294408
#     315760
# 
# Disc length: 4561
# 
# Revision: 1
# Processed by: cddbd v1.5.2PL0 Copyright (c) Steve Scherf et al.
# Submitted via: fre:ac v1.0.27
# 
DISCID=b811cf0e
DTITLE=いきものがかり - いきものばかり(Disc1)
DYEAR=2016
DGENRE=JPop
TTITLE0=SAKURA
TTITLE1=キミがいる
TTITLE2=気まぐれロマンティック
TTITLE3=茜色の約束
TTITLE4=あなた
TTITLE5=キラリ
TTITLE6=帰りたくなったよ
TTITLE7=ふたり
TTITLE8=コイスルオトメ -激情編-
TTITLE9=涙がきえるなら
TTITLE10=いこう
TTITLE11=なくもんか
TTITLE12=心の花を咲かせよう
TTITLE13=地球
EXTD=
EXTT0=
EXTT1=
EXTT2=
EXTT3=
EXTT4=
EXTT5=
EXTT6=
EXTT7=
EXTT8=
EXTT9=
EXTT10=
EXTT11=
EXTT12=
EXTT13=
PLAYORDER=
